<?xml version="1.0" standalone="no"?><!DOCTYPE svg PUBLIC "-//W3C//DTD SVG 1.1//EN" "http://www.w3.org/Graphics/SVG/1.1/DTD/svg11.dtd"><svg t="1574908774340" class="icon" viewBox="0 0 1024 1024" version="1.1" xmlns="http://www.w3.org/2000/svg" p-id="3009" xmlns:xlink="http://www.w3.org/1999/xlink" width="128" height="128"><defs><style type="text/css"></style></defs><path d="M385.505882 337.317647m-60.235294 0a60.235294 60.235294 0 1 0 120.470588 0 60.235294 60.235294 0 1 0-120.470588 0Z" fill="#FC7070" p-id="3010"></path><path d="M903.529412 0H120.470588C54.211765 0 0 54.211765 0 120.470588v783.058824c0 66.258824 54.211765 120.470588 120.470588 120.470588h783.058824c66.258824 0 120.470588-54.211765 120.470588-120.470588V120.470588c0-66.258824-54.211765-120.470588-120.470588-120.470588zM385.505882 216.847059c66.258824 0 120.470588 54.211765 120.470589 120.470588s-54.211765 120.470588-120.470589 120.470588-120.470588-54.211765-120.470588-120.470588 54.211765-120.470588 120.470588-120.470588z m186.729412 578.258823l-18.070588-18.070588-162.635294-162.635294-198.776471 198.776471-42.164706-42.164706 240.941177-240.941177 42.164706 42.164706 138.541176 138.541177 259.011765-259.011765 42.164706 42.164706-301.176471 301.17647z" fill="#FC7070" p-id="3011"></path></svg>