<?xml version="1.0" standalone="no"?><!DOCTYPE svg PUBLIC "-//W3C//DTD SVG 1.1//EN" "http://www.w3.org/Graphics/SVG/1.1/DTD/svg11.dtd"><svg t="1574908741704" class="icon" viewBox="0 0 1024 1024" version="1.1" xmlns="http://www.w3.org/2000/svg" p-id="2181" xmlns:xlink="http://www.w3.org/1999/xlink" width="128" height="128"><defs><style type="text/css"></style></defs><path d="M542.117647 301.176471H361.411765v240.941176h180.705882c66.258824 0 120.470588-54.211765 120.470588-120.470588s-54.211765-120.470588-120.470588-120.470588z" fill="#FF9843" p-id="2182"></path><path d="M903.529412 0H120.470588C54.211765 0 0 54.211765 0 120.470588v783.058824c0 66.258824 54.211765 120.470588 120.470588 120.470588h783.058824c66.258824 0 120.470588-54.211765 120.470588-120.470588V120.470588c0-66.258824-54.211765-120.470588-120.470588-120.470588zM542.117647 602.352941H361.411765v180.705883H301.176471V240.941176h240.941176c102.4 0 180.705882 78.305882 180.705882 180.705883s-78.305882 180.705882-180.705882 180.705882z" fill="#FF9843" p-id="2183"></path></svg>