<?xml version="1.0" standalone="no"?><!DOCTYPE svg PUBLIC "-//W3C//DTD SVG 1.1//EN" "http://www.w3.org/Graphics/SVG/1.1/DTD/svg11.dtd"><svg t="1574908789919" class="icon" viewBox="0 0 1024 1024" version="1.1" xmlns="http://www.w3.org/2000/svg" p-id="3365" xmlns:xlink="http://www.w3.org/1999/xlink" width="128" height="128"><defs><style type="text/css"></style></defs><path d="M367.435294 343.341176H289.129412v174.682353h84.329412c30.117647 0 54.211765-6.023529 66.258823-18.070588s18.070588-36.141176 18.070588-66.258823-12.047059-54.211765-24.094117-72.282353c-18.070588-12.047059-36.141176-18.070588-66.258824-18.070589z" fill="#5099F4" p-id="3366"></path><path d="M903.529412 0H120.470588C54.211765 0 0 54.211765 0 120.470588v783.058824c0 66.258824 54.211765 120.470588 120.470588 120.470588h783.058824c66.258824 0 120.470588-54.211765 120.470588-120.470588V120.470588c0-66.258824-54.211765-120.470588-120.470588-120.470588zM367.435294 554.164706H289.129412v138.541176c0 6.023529 0 12.047059-6.02353 18.070589s-12.047059 6.023529-18.070588 6.023529c-6.023529 0-12.047059 0-18.070588-6.023529-6.023529 0-6.023529-6.023529-6.02353-18.070589v-361.411764c0-12.047059 0-18.070588 6.02353-24.094118 6.023529-6.023529 12.047059-6.023529 30.117647-6.023529h96.376471c48.188235 0 78.305882 12.047059 102.4 30.117647 24.094118 18.070588 30.117647 54.211765 30.117647 96.37647-6.023529 84.329412-48.188235 126.494118-138.541177 126.494118z m403.576471 108.423529c-6.023529 12.047059-18.070588 24.094118-30.117647 30.117647l-36.141177 18.070589c-12.047059 12.047059-24.094118 12.047059-36.141176 12.047058-18.070588 0-30.117647 0-48.188236-6.023529s-24.094118-12.047059-36.141176-18.070588c-12.047059-6.023529-18.070588-12.047059-24.094118-18.070588s-6.023529-12.047059-6.023529-18.070589c0-6.023529 0-12.047059 6.023529-18.070588 0-6.023529 6.023529-6.023529 12.047059-6.023529s6.023529 0 12.047059 6.023529 12.047059 12.047059 18.070588 12.047059 18.070588 12.047059 30.117647 12.047059 24.094118 6.023529 42.164706 6.023529c18.070588 0 36.141176-6.023529 48.188235-12.047059 12.047059-12.047059 18.070588-24.094118 18.070589-36.141176 0-6.023529 0-12.047059-6.02353-18.070588 0-6.023529-6.023529-12.047059-12.047059-12.047059-6.023529-6.023529-12.047059-12.047059-24.094117-12.047059-12.047059-6.023529-24.094118-6.023529-42.164706-12.047059-18.070588-6.023529-30.117647-6.023529-42.164706-12.047059-12.047059-12.047059-24.094118-18.070588-30.117647-24.094117-6.023529-6.023529-12.047059-12.047059-18.070588-24.094118-6.023529-6.023529-6.023529-18.070588-6.02353-30.117647s0-24.094118 6.02353-36.141177c6.023529-12.047059 18.070588-24.094118 24.094117-30.117647l36.141177-18.070588c12.047059-6.023529 24.094118-6.023529 42.164706-6.023529 18.070588 0 30.117647 0 42.164706 6.023529 12.047059 6.023529 24.094118 6.023529 36.141176 12.047059 12.047059 6.023529 18.070588 12.047059 24.094118 18.070588s6.023529 12.047059 6.023529 18.070588c0 6.023529 0 12.047059-6.023529 18.070589 0 6.023529-6.023529 6.023529-12.047059 6.023529 0 0-6.023529 0-6.02353-6.023529l-12.047058-12.047059c-12.047059-6.023529-18.070588-12.047059-30.117647-18.070588s-24.094118-6.023529-42.164706-6.02353h-24.094118c-6.023529 0-12.047059 6.023529-18.070588 6.02353s-12.047059 6.023529-12.047059 12.047058c-6.023529 18.070588-12.047059 24.094118-12.047059 36.141177 0 6.023529 0 12.047059 6.02353 18.070588 0 6.023529 6.023529 6.023529 12.047058 12.047059s12.047059 6.023529 24.094118 12.047059 24.094118 6.023529 36.141177 12.047059c18.070588 0 30.117647 6.023529 42.164705 6.023529 12.047059 6.023529 24.094118 12.047059 30.117647 18.070588 6.023529 6.023529 18.070588 18.070588 18.070589 24.094118 12.047059 12.047059 12.047059 24.094118 12.047059 42.164706s0 24.094118-12.047059 36.141176z" fill="#5099F4" p-id="3367"></path></svg>